<svg width="50" height="50" viewBox="0 0 50 50" fill="none" xmlns="http://www.w3.org/2000/svg">
<circle cx="25" cy="25" r="14" stroke="#474747" stroke-width="2"/>
<path fill-rule="evenodd" clip-rule="evenodd" d="M20 19C19.4477 19 19 19.4477 19 20V30C19 30.5523 19.4477 31 20 31H23C23.5523 31 24 30.5523 24 30V20C24 19.4477 23.5523 19 23 19H20ZM27 19C26.4477 19 26 19.4477 26 20V30C26 30.5523 26.4477 31 27 31H30C30.5523 31 31 30.5523 31 30V20C31 19.4477 30.5523 19 30 19H27Z" fill="#474747"/>
</svg>
