<svg width="10" height="10" viewBox="0 0 10 10" fill="none" xmlns="http://www.w3.org/2000/svg">
<path fill-rule="evenodd" clip-rule="evenodd" d="M7.92462 9.58981C8.11988 9.78508 8.43646 9.78508 8.63173 9.58981L9.33883 8.88271C9.5341 8.68744 9.53409 8.37086 9.33883 8.1756L6.19865 5.03541L9.40986 1.8242C9.60512 1.62894 9.60512 1.31235 9.40986 1.11709L8.70275 0.409986C8.50749 0.214724 8.19091 0.214724 7.99564 0.409986L4.78443 3.6212L1.56066 0.397423C1.3654 0.202161 1.04882 0.202161 0.853553 0.397423L0.146446 1.10453C-0.0488156 1.29979 -0.0488154 1.61638 0.146447 1.81164L3.37022 5.03541L0.21747 8.18816C0.0222074 8.38342 0.0222074 8.7 0.21747 8.89527L0.924576 9.60237C1.11984 9.79764 1.43642 9.79764 1.63168 9.60237L4.78443 6.44962L7.92462 9.58981Z" fill="white"/>
</svg>
