<svg id="Layer_1" data-name="Layer 1" xmlns="http://www.w3.org/2000/svg" viewBox="0 0 154.02 28.96"><title>ph_logo_byline_rus_cmyk [Converted]</title><polygon points="138.74 5.86 138.22 5.86 138.22 2.24 136.8 2.24 136.8 1.74 140.26 1.74 140.26 2.24 138.74 2.24 138.74 5.86"/><polygon points="144.78 1.74 142.91 7.47 142.36 7.47 142.91 5.86 142.69 5.86 141.35 1.74 141.9 1.74 143.03 5.34 143.09 5.34 144.22 1.74 144.78 1.74"/><polygon points="33.24 5.86 29.04 5.86 29.04 1.74 29.56 1.74 29.56 5.37 30.88 5.37 30.88 1.74 31.4 1.74 31.4 5.37 32.73 5.37 32.73 1.74 33.24 1.74 33.24 5.86"/><path d="M261.38,394.1V394a0.32,0.32,0,0,0,0-.14,1.19,1.19,0,0,0-.41-0.43,0.36,0.36,0,0,0-.17,0h-1.65v1.39h1.65a0.29,0.29,0,0,0,.16,0,1.2,1.2,0,0,0,.42-0.43,0.37,0.37,0,0,0,0-.16m-2.26-2.59v1.35h1.65a0.41,0.41,0,0,0,.16,0,1.22,1.22,0,0,0,.42-0.44,0.37,0.37,0,0,0,0-.16v-0.1a0.31,0.31,0,0,0,0-.14,1.18,1.18,0,0,0-.41-0.44,0.34,0.34,0,0,0-.17,0h-1.65Zm2.33,1.6a2.29,2.29,0,0,1,.31.34,0.89,0.89,0,0,1,.14.51v0.18a0.94,0.94,0,0,1-.14.49,1.81,1.81,0,0,1-.39.42,1,1,0,0,1-.58.18H258.6V391h2.18a1.13,1.13,0,0,1,.58.19,2,2,0,0,1,.39.41,1,1,0,0,1,.14.52v0.14a0.87,0.87,0,0,1-.14.48,2.78,2.78,0,0,1-.31.36" transform="translate(-223.88 -389.31)"/><path d="M263.79,392.18v0.67H266v-0.67a0.41,0.41,0,0,0,0-.16,1.41,1.41,0,0,0-.46-0.47,0.32,0.32,0,0,0-.17,0h-0.95a0.29,0.29,0,0,0-.16,0,1.38,1.38,0,0,0-.46.47,0.37,0.37,0,0,0,0,.16m2.27,2,0.51,0.17a1.41,1.41,0,0,1-.13.21,2.85,2.85,0,0,1-.43.46,1,1,0,0,1-.58.18h-1a1,1,0,0,1-.59-0.18,2.84,2.84,0,0,1-.43-0.46,0.91,0.91,0,0,1-.14-0.51v-1.92a0.91,0.91,0,0,1,.14-0.51,2.88,2.88,0,0,1,.43-0.46,1,1,0,0,1,.59-0.18h1a1,1,0,0,1,.59.18,2.71,2.71,0,0,1,.43.46,0.89,0.89,0,0,1,.14.51v1.19h-2.77v0.71a0.37,0.37,0,0,0,0,.16,1.37,1.37,0,0,0,.45.47,0.29,0.29,0,0,0,.16,0h1a0.32,0.32,0,0,0,.17,0,1.45,1.45,0,0,0,.44-0.47v0Z" transform="translate(-223.88 -389.31)"/><path d="M270.5,389.31a0.91,0.91,0,0,1-.92.91,0.9,0.9,0,0,1-.9-0.91H269a0.55,0.55,0,0,0,.54.55,0.56,0.56,0,0,0,.56-0.55h0.36Zm0.79,1.74v4.12h-0.52v-3.41l-2.19,3.41H268v-4.12h0.52v3.36l2.16-3.36h0.64Z" transform="translate(-223.88 -389.31)"/><polygon points="52.34 5.37 52.16 6.78 51.67 6.78 51.77 5.86 48.88 5.86 48.88 1.74 49.39 1.74 49.39 5.37 51.41 5.37 51.41 1.74 51.92 1.74 51.92 5.37 52.34 5.37"/><path d="M280.23,394.12v-0.86h-1.66a0.31,0.31,0,0,0-.17,0,1.33,1.33,0,0,0-.44.45,0.33,0.33,0,0,0,0,.15v0.19a0.33,0.33,0,0,0,0,.15,1.33,1.33,0,0,0,.44.45,0.32,0.32,0,0,0,.17,0h0.81a0.29,0.29,0,0,0,.13,0,2.09,2.09,0,0,0,.72-0.58m0.07,1.06-0.06-.48a2.64,2.64,0,0,1-.36.33,0.84,0.84,0,0,1-.47.2h-0.84A1,1,0,0,1,278,395a3.53,3.53,0,0,1-.42-0.45,0.89,0.89,0,0,1-.14-0.51V393.9a0.87,0.87,0,0,1,.14-0.51,3.47,3.47,0,0,1,.42-0.45,1,1,0,0,1,.58-0.18h1.67v-0.58a0.5,0.5,0,0,0,0-.15,1.41,1.41,0,0,0-.46-0.47,0.32,0.32,0,0,0-.17,0h-0.9a0.29,0.29,0,0,0-.16,0,1.65,1.65,0,0,0-.46.48l-0.5-.16a2,2,0,0,1,.14-0.22,2.76,2.76,0,0,1,.43-0.46,1,1,0,0,1,.58-0.17h0.88a1,1,0,0,1,.59.18,2.15,2.15,0,0,1,.43.45,0.85,0.85,0,0,1,.13.52v2.34l0.06,0.68h-0.52Z" transform="translate(-223.88 -389.31)"/><path d="M285,392a1.38,1.38,0,0,0-.45-0.47,0.33,0.33,0,0,0-.17,0h-0.71a0.31,0.31,0,0,0-.14,0,2.25,2.25,0,0,0-.73.58,0.15,0.15,0,0,0,0,.06v1.89a0.11,0.11,0,0,0,0,0,2.13,2.13,0,0,0,.73.58,0.31,0.31,0,0,0,.14,0h0.71a0.33,0.33,0,0,0,.17,0,1.38,1.38,0,0,0,.45-0.47,0.37,0.37,0,0,0,0-.16v-1.88a0.37,0.37,0,0,0,0-.16m0,3a1,1,0,0,1-.58.18h-0.75a0.92,0.92,0,0,1-.48-0.2,3,3,0,0,1-.37-0.34v2.11h-0.52v-5l-0.06-.68h0.52l0.06,0.51a3,3,0,0,1,.37-0.36,0.93,0.93,0,0,1,.48-0.2h0.75a1,1,0,0,1,.58.18,2.77,2.77,0,0,1,.43.46,0.9,0.9,0,0,1,.14.51v1.92a0.9,0.9,0,0,1-.14.51,2.73,2.73,0,0,1-.43.46" transform="translate(-223.88 -389.31)"/><path d="M289.64,395a1,1,0,0,1-.58.18h-1a1,1,0,0,1-.59-0.18,2.81,2.81,0,0,1-.43-0.46,0.9,0.9,0,0,1-.13-0.51v-1.92a0.9,0.9,0,0,1,.13-0.51,2.85,2.85,0,0,1,.43-0.46,1,1,0,0,1,.59-0.18H289a1,1,0,0,1,.58.18,2.48,2.48,0,0,1,.56.68l-0.5.16a1.36,1.36,0,0,0-.46-0.49,0.32,0.32,0,0,0-.17,0h-1a0.33,0.33,0,0,0-.17,0,1.38,1.38,0,0,0-.45.47,0.37,0.37,0,0,0,0,.16v1.88a0.37,0.37,0,0,0,0,.16,1.36,1.36,0,0,0,.44.47,0.32,0.32,0,0,0,.17,0h1a0.32,0.32,0,0,0,.17,0,1.39,1.39,0,0,0,.45-0.47v0l0.5,0.17a2.18,2.18,0,0,1-.56.67" transform="translate(-223.88 -389.31)"/><polygon points="70.17 5.86 68.49 3.96 68.19 3.96 68.19 5.86 67.67 5.86 67.67 1.74 68.19 1.74 68.19 3.46 68.49 3.46 70.01 1.74 70.72 1.74 68.95 3.71 70.92 5.86 70.17 5.86"/><polygon points="75.39 1.74 75.39 5.86 74.87 5.86 74.87 2.45 72.68 5.86 72.07 5.86 72.07 1.74 72.58 1.74 72.58 5.11 74.74 1.74 75.39 1.74"/><path d="M303.27,389.31a0.91,0.91,0,0,1-.92.91,0.9,0.9,0,0,1-.9-0.91h0.36a0.54,0.54,0,0,0,.54.55,0.56,0.56,0,0,0,.56-0.55h0.36Zm0.79,1.74v4.12h-0.52v-3.41l-2.19,3.41h-0.61v-4.12h0.52v3.36l2.16-3.36h0.64Z" transform="translate(-223.88 -389.31)"/><path d="M310.07,395a1,1,0,0,1-.59.18h-1a1,1,0,0,1-.59-0.18,2.72,2.72,0,0,1-.43-0.46,0.9,0.9,0,0,1-.13-0.51v-1.92a0.9,0.9,0,0,1,.13-0.51,2.76,2.76,0,0,1,.43-0.46,1,1,0,0,1,.59-0.18h0.95a1,1,0,0,1,.58.18,2.48,2.48,0,0,1,.56.68l-0.5.16a1.39,1.39,0,0,0-.46-0.49,0.32,0.32,0,0,0-.17,0h-1a0.32,0.32,0,0,0-.17,0,1.39,1.39,0,0,0-.45.47,0.39,0.39,0,0,0,0,.16v1.88a0.39,0.39,0,0,0,0,.16,1.37,1.37,0,0,0,.44.47,0.33,0.33,0,0,0,.17,0h1a0.32,0.32,0,0,0,.17,0,1.39,1.39,0,0,0,.45-0.47v0l0.5,0.17a2.19,2.19,0,0,1-.56.67" transform="translate(-223.88 -389.31)"/><path d="M314.69,392.18a0.41,0.41,0,0,0,0-.16,1.41,1.41,0,0,0-.46-0.47,0.33,0.33,0,0,0-.17,0H313.1a0.33,0.33,0,0,0-.17,0,1.39,1.39,0,0,0-.45.47,0.41,0.41,0,0,0,0,.16v1.88a0.41,0.41,0,0,0,0,.16,1.4,1.4,0,0,0,.45.47,0.33,0.33,0,0,0,.17,0H314a0.33,0.33,0,0,0,.17,0,1.42,1.42,0,0,0,.46-0.47,0.41,0.41,0,0,0,0-.16v-1.88Zm0.38,2.41a2.72,2.72,0,0,1-.43.46,1,1,0,0,1-.59.18h-1a1,1,0,0,1-.59-0.18,2.72,2.72,0,0,1-.43-0.46,0.9,0.9,0,0,1-.13-0.51v-1.92a0.9,0.9,0,0,1,.13-0.51,2.76,2.76,0,0,1,.43-0.46,1,1,0,0,1,.59-0.18h1a1,1,0,0,1,.59.18,2.76,2.76,0,0,1,.43.46,0.9,0.9,0,0,1,.13.51v1.92a0.9,0.9,0,0,1-.13.51" transform="translate(-223.88 -389.31)"/><path d="M319.42,394.1V394a0.34,0.34,0,0,0,0-.14,1.23,1.23,0,0,0-.41-0.43,0.37,0.37,0,0,0-.17,0h-1.65v1.39h1.65a0.29,0.29,0,0,0,.16,0,1.21,1.21,0,0,0,.42-0.43,0.4,0.4,0,0,0,0-.16m-2.26-2.59v1.35h1.65a0.41,0.41,0,0,0,.16,0,1.23,1.23,0,0,0,.42-0.44,0.39,0.39,0,0,0,0-.16v-0.1a0.33,0.33,0,0,0,0-.14,1.22,1.22,0,0,0-.41-0.44,0.35,0.35,0,0,0-.17,0h-1.65Zm2.33,1.6a2.34,2.34,0,0,1,.31.34,0.9,0.9,0,0,1,.14.51v0.18a0.94,0.94,0,0,1-.14.49,1.82,1.82,0,0,1-.39.42,1,1,0,0,1-.58.18h-2.17V391h2.17a1.13,1.13,0,0,1,.58.19,2,2,0,0,1,.39.41,1,1,0,0,1,.14.52v0.14a0.87,0.87,0,0,1-.14.48,2.85,2.85,0,0,1-.31.36" transform="translate(-223.88 -389.31)"/><path d="M321.82,392.18v0.67h2.25v-0.67a0.41,0.41,0,0,0,0-.16,1.43,1.43,0,0,0-.46-0.47,0.32,0.32,0,0,0-.17,0h-1a0.29,0.29,0,0,0-.16,0,1.39,1.39,0,0,0-.46.47,0.36,0.36,0,0,0,0,.16m2.27,2,0.51,0.17a1.33,1.33,0,0,1-.13.21,2.81,2.81,0,0,1-.43.46,1,1,0,0,1-.58.18h-1a1,1,0,0,1-.59-0.18,2.79,2.79,0,0,1-.43-0.46,0.9,0.9,0,0,1-.14-0.51v-1.92a0.91,0.91,0,0,1,.14-0.51,2.83,2.83,0,0,1,.43-0.46,1,1,0,0,1,.59-0.18h1a1,1,0,0,1,.59.18,2.85,2.85,0,0,1,.43.46,0.92,0.92,0,0,1,.13.51v1.19h-2.77v0.71a0.36,0.36,0,0,0,0,.16,1.38,1.38,0,0,0,.45.47,0.29,0.29,0,0,0,.16,0h1a0.32,0.32,0,0,0,.17,0,1.43,1.43,0,0,0,.44-0.47v0Z" transform="translate(-223.88 -389.31)"/><polygon points="103.81 5.86 103.3 5.86 103.3 2.24 101.88 2.24 101.88 1.74 105.34 1.74 105.34 2.24 103.81 2.24 103.81 5.86"/><polygon points="111.47 1.74 111.47 5.86 110.96 5.86 110.96 2.24 108.86 2.24 108.86 5.86 108.34 5.86 108.34 1.76 108.34 1.74 111.47 1.74"/><path d="M339.55,392.18a0.37,0.37,0,0,0,0-.16,1.37,1.37,0,0,0-.46-0.47,0.32,0.32,0,0,0-.17,0H338a0.33,0.33,0,0,0-.17,0,1.38,1.38,0,0,0-.45.47,0.36,0.36,0,0,0,0,.16v1.88a0.36,0.36,0,0,0,0,.16,1.39,1.39,0,0,0,.45.47,0.33,0.33,0,0,0,.17,0h0.94a0.32,0.32,0,0,0,.17,0,1.38,1.38,0,0,0,.46-0.47,0.37,0.37,0,0,0,0-.16v-1.88Zm0.38,2.41a2.77,2.77,0,0,1-.43.46,1,1,0,0,1-.59.18h-1a1,1,0,0,1-.59-0.18,2.86,2.86,0,0,1-.43-0.46,0.9,0.9,0,0,1-.13-0.51v-1.92a0.9,0.9,0,0,1,.13-0.51,2.9,2.9,0,0,1,.43-0.46,1,1,0,0,1,.59-0.18h1a1,1,0,0,1,.59.18,2.81,2.81,0,0,1,.43.46,0.9,0.9,0,0,1,.13.51v1.92a0.9,0.9,0,0,1-.13.51" transform="translate(-223.88 -389.31)"/><polygon points="122.01 5.86 120.34 3.96 120.04 3.96 120.04 5.86 119.52 5.86 119.52 1.74 120.04 1.74 120.04 3.46 120.34 3.46 121.86 1.74 122.57 1.74 120.8 3.71 122.76 5.86 122.01 5.86"/><polygon points="127.08 1.74 125.21 7.47 124.66 7.47 125.21 5.86 124.99 5.86 123.64 1.74 124.2 1.74 125.33 5.34 125.39 5.34 126.52 1.74 127.08 1.74"/><path d="M355.36,391.06v4.12h-0.52v-3.62h-2v2.51a0.94,0.94,0,0,1-.14.52,2.8,2.8,0,0,1-.42.46,1.09,1.09,0,0,1-.6.18H351.4v-0.5h0.26a0.38,0.38,0,0,0,.18,0,1.48,1.48,0,0,0,.44-0.47,0.4,0.4,0,0,0,0-.16v-3h3Z" transform="translate(-223.88 -389.31)"/><path d="M359.64,394.1V394a0.34,0.34,0,0,0,0-.14,1.16,1.16,0,0,0-.41-0.43,0.34,0.34,0,0,0-.17,0h-1.68v1.38H359a0.29,0.29,0,0,0,.16,0,1.22,1.22,0,0,0,.42-0.43,0.41,0.41,0,0,0,0-.16m0.52,0a0.94,0.94,0,0,1-.14.49,1.76,1.76,0,0,1-.39.42,1,1,0,0,1-.58.18h-2.2v-4.17h0.52v1.79H359a1,1,0,0,1,.58.17,2,2,0,0,1,.39.42,0.9,0.9,0,0,1,.14.51v0.18Z" transform="translate(-223.88 -389.31)"/><path d="M372.67,392a1.41,1.41,0,0,0-.45-0.47,0.33,0.33,0,0,0-.17,0h-0.71a0.31,0.31,0,0,0-.13,0,2.24,2.24,0,0,0-.73.58,0.14,0.14,0,0,0,0,.06v1.89a0.11,0.11,0,0,0,0,0,2.12,2.12,0,0,0,.73.58,0.31,0.31,0,0,0,.13,0H372a0.33,0.33,0,0,0,.17,0,1.4,1.4,0,0,0,.45-0.47,0.39,0.39,0,0,0,0-.16v-1.88a0.4,0.4,0,0,0,0-.16m0,3a1,1,0,0,1-.58.18h-0.75a0.93,0.93,0,0,1-.48-0.2,3,3,0,0,1-.37-0.34v2.11h-0.52v-5l-0.06-.68h0.52l0.06,0.51a3,3,0,0,1,.37-0.36,0.93,0.93,0,0,1,.48-0.2h0.75a1,1,0,0,1,.58.18,2.72,2.72,0,0,1,.43.46,0.91,0.91,0,0,1,.14.51v1.92a0.9,0.9,0,0,1-.14.51,2.68,2.68,0,0,1-.43.46" transform="translate(-223.88 -389.31)"/><path d="M375.12,392.18v0.67h2.25v-0.67a0.43,0.43,0,0,0,0-.16,1.45,1.45,0,0,0-.46-0.47,0.32,0.32,0,0,0-.17,0h-1a0.29,0.29,0,0,0-.16,0,1.39,1.39,0,0,0-.46.47,0.36,0.36,0,0,0,0,.16m2.27,2,0.51,0.17a1.34,1.34,0,0,1-.13.21,2.77,2.77,0,0,1-.43.46,1,1,0,0,1-.58.18h-1a1,1,0,0,1-.59-0.18,2.79,2.79,0,0,1-.43-0.46,0.9,0.9,0,0,1-.14-0.51v-1.92a0.9,0.9,0,0,1,.14-0.51,2.83,2.83,0,0,1,.43-0.46,1,1,0,0,1,.59-0.18h1a1,1,0,0,1,.59.18,2.75,2.75,0,0,1,.43.46,0.9,0.9,0,0,1,.14.51v1.19h-2.77v0.71a0.36,0.36,0,0,0,0,.16,1.36,1.36,0,0,0,.45.47,0.29,0.29,0,0,0,.16,0h1a0.32,0.32,0,0,0,.17,0,1.44,1.44,0,0,0,.44-0.47v0Z" transform="translate(-223.88 -389.31)"/><path d="M247.17,413.87h-2.42v-2.44h-2.86v0.37a2.86,2.86,0,0,0,3,3H247a2.86,2.86,0,0,0,3-3v-0.37h-2.85v2.44Zm-0.15-8h-2.15a2.87,2.87,0,0,0-3,3v0.34h2.84v-2.4h2.44v2.4H250v-0.34a2.87,2.87,0,0,0-3-3" transform="translate(-223.88 -389.31)"/><path d="M229.07,412.86h-2.15a0.93,0.93,0,0,1-1.06-1.06v-3a0.93,0.93,0,0,1,1.06-1.06h2.15a0.94,0.94,0,0,1,1.06,1.06v3a1,1,0,0,1-1.06,1.06m0-7.09h-2.15a2.91,2.91,0,0,0-3,3v9.45h2v-3.62a0.2,0.2,0,0,0,.08,0,3.41,3.41,0,0,0,1,.16h2.15a2.91,2.91,0,0,0,3-3v-3a2.91,2.91,0,0,0-3-3" transform="translate(-223.88 -389.31)"/><path d="M258.08,405.77h-2.15a3.39,3.39,0,0,0-1,.17l-0.1,0v-3.45h-2v12.33h2v-6a1,1,0,0,1,1.08-1.06h2.15a0.93,0.93,0,0,1,1.06,1.06v6h2v-6a2.91,2.91,0,0,0-3-3" transform="translate(-223.88 -389.31)"/><path d="M311.84,414.85h2v-9.07h-2v9.07Zm2-12.31h-2v2.09h2v-2.09Z" transform="translate(-223.88 -389.31)"/><path d="M308.76,407.76v-2h-2.7v-3.24h-2v3.24h-1.74v2h1.74v4a2.88,2.88,0,0,0,3,3h1.6v-2h-1.6a0.94,0.94,0,0,1-1.06-1.07v-4h2.69Z" transform="translate(-223.88 -389.31)"/><path d="M278.06,412.88a0.94,0.94,0,0,1-1.06-1.07v-9.26h-2v9.26a2.87,2.87,0,0,0,3,3h1.63v-2h-1.63Z" transform="translate(-223.88 -389.31)"/><path d="M237.67,405.78a2.88,2.88,0,0,0-3,3v6h2v-6a0.93,0.93,0,0,1,1.06-1.06h2.38v-2h-2.38Z" transform="translate(-223.88 -389.31)"/><path d="M287.85,405.78L287,408.93,286,412.33c-0.16.54-.17,0.59-0.57,0.59s-0.41,0-.53-0.48l-1.86-6.65H281l2,7.1c0.43,1.49,1.07,2,2.46,2s2-.54,2.47-2.06l2-7.06h-2.05Z" transform="translate(-223.88 -389.31)"/><path d="M267,407.65h2.15a1,1,0,0,1,1.17,1.17v0.61h-4.49v-0.61a1.05,1.05,0,0,1,1.17-1.17m2.15-1.87H267a2.91,2.91,0,0,0-3,3v3a2.91,2.91,0,0,0,3,3h4.73v-2h-4.82a1,1,0,0,1-1.06-1.07v-0.52h5a1.39,1.39,0,0,0,1.38-1.4v-1.07a2.91,2.91,0,0,0-3-3" transform="translate(-223.88 -389.31)"/><path d="M293.83,409a1.19,1.19,0,0,1,1.17-1.36h2.15a1,1,0,0,1,1.17,1.17v0.61h-4.49V409Zm3.32-3.23H295a2.91,2.91,0,0,0-3,3v3a2.91,2.91,0,0,0,3,3h4.72v-2h-4.81a1,1,0,0,1-1.06-1.07v-0.53h5a1.38,1.38,0,0,0,1.39-1.39v-1.07a2.91,2.91,0,0,0-3-3" transform="translate(-223.88 -389.31)"/><path d="M322.23,413h-2.67c-1.05,0-1.17-.51-1.17-0.9,0-.65.19-0.82,1-0.9l3.08-.33,0.41-.09v1.55a0.58,0.58,0,0,1-.68.67m-0.47-7.2h-4v2h4a0.88,0.88,0,0,1,1,.84v0.14c0,0.12-.12.21-0.5,0.27l-3,.31c-2.38.26-2.73,1.84-2.73,2.77a2.77,2.77,0,0,0,3,2.77h2.67a2.42,2.42,0,0,0,2.53-2.54v-3.5a2.89,2.89,0,0,0-3-3" transform="translate(-223.88 -389.31)"/></svg>