<svg id="Layer_1" data-name="Layer 1" xmlns="http://www.w3.org/2000/svg" viewBox="0 0 154 28.91"><defs><style>.cls-1{fill:#474747;}</style></defs><title>ph_logo_byline_rus_cmyk [Converted]_white</title><polygon class="cls-1" points="138.7 5.86 138.18 5.86 138.18 2.24 136.76 2.24 136.76 1.74 140.22 1.74 140.22 2.24 138.7 2.24 138.7 5.86"/><polygon class="cls-1" points="144.74 1.74 142.87 7.47 142.32 7.47 142.87 5.86 142.65 5.86 141.31 1.74 141.86 1.74 142.99 5.34 143.05 5.34 144.18 1.74 144.74 1.74"/><polygon class="cls-1" points="33.2 5.86 29 5.86 29 1.74 29.52 1.74 29.52 5.37 30.84 5.37 30.84 1.74 31.36 1.74 31.36 5.37 32.69 5.37 32.69 1.74 33.2 1.74 33.2 5.86"/><path class="cls-1" d="M37.5,4.79V4.69a0.32,0.32,0,0,0,0-.14,1.19,1.19,0,0,0-.41-0.43,0.36,0.36,0,0,0-.17,0H35.27V5.51h1.65a0.29,0.29,0,0,0,.16,0,1.2,1.2,0,0,0,.42-0.43,0.37,0.37,0,0,0,0-.16M35.24,2.33V3.68h1.65a0.41,0.41,0,0,0,.16,0,1.22,1.22,0,0,0,.42-0.44,0.37,0.37,0,0,0,0-.16V3a0.31,0.31,0,0,0,0-.14,1.18,1.18,0,0,0-.41-0.44,0.34,0.34,0,0,0-.17,0H35.24V2.33Zm2.33,1.6a2.29,2.29,0,0,1,.31.34,0.89,0.89,0,0,1,.14.51V5a0.94,0.94,0,0,1-.14.49,1.81,1.81,0,0,1-.39.42,1,1,0,0,1-.58.18H34.72V1.69H36.9a1.13,1.13,0,0,1,.58.19,2,2,0,0,1,.39.41,1,1,0,0,1,.14.52V2.95a0.87,0.87,0,0,1-.14.48,2.78,2.78,0,0,1-.31.36" transform="translate(-0.04 0)"/><path class="cls-1" d="M39.91,2.87V3.54h2.21V2.87a0.41,0.41,0,0,0,0-.16,1.41,1.41,0,0,0-.46-0.47,0.32,0.32,0,0,0-.17,0h-1a0.29,0.29,0,0,0-.16,0,1.38,1.38,0,0,0-.46.47,0.37,0.37,0,0,0,0,.16m2.27,2L42.7,5a1.41,1.41,0,0,1-.13.21,2.85,2.85,0,0,1-.43.46,1,1,0,0,1-.58.18h-1A1,1,0,0,1,40,5.71a2.84,2.84,0,0,1-.43-0.46,0.91,0.91,0,0,1-.14-0.51V2.82a0.91,0.91,0,0,1,.14-0.51A2.88,2.88,0,0,1,40,1.85a1,1,0,0,1,.59-0.18h1a1,1,0,0,1,.59.18,2.71,2.71,0,0,1,.43.46,0.89,0.89,0,0,1,.14.51V4H40V4.72a0.37,0.37,0,0,0,0,.16,1.37,1.37,0,0,0,.45.47,0.29,0.29,0,0,0,.16,0h1a0.32,0.32,0,0,0,.17,0,1.45,1.45,0,0,0,.44-0.47h0Z" transform="translate(-0.04 0)"/><path class="cls-1" d="M46.62,0a0.91,0.91,0,0,1-.91.91h0A0.9,0.9,0,0,1,44.8,0h0.32a0.55,0.55,0,0,0,.54.55A0.56,0.56,0,0,0,46.22,0h0.4Zm0.79,1.74V5.86H46.89V2.45L44.7,5.86H44.12V1.74h0.52V5.1L46.8,1.74h0.61Z" transform="translate(-0.04 0)"/><polygon class="cls-1" points="52.3 5.37 52.12 6.78 51.63 6.78 51.73 5.86 48.84 5.86 48.84 1.74 49.35 1.74 49.35 5.37 51.37 5.37 51.37 1.74 51.88 1.74 51.88 5.37 52.3 5.37"/><path class="cls-1" d="M56.35,4.81V3.95H54.69a0.31,0.31,0,0,0-.17,0,1.33,1.33,0,0,0-.44.45,0.33,0.33,0,0,0,0,.15V4.74a0.33,0.33,0,0,0,0,.15,1.33,1.33,0,0,0,.44.45,0.32,0.32,0,0,0,.17,0h0.94a2.09,2.09,0,0,0,.72-0.58m0.07,1.06-0.06-.48a2.64,2.64,0,0,1-.36.33,0.84,0.84,0,0,1-.47.2H54.69a1,1,0,0,1-.57-0.18,3.53,3.53,0,0,1-.42-0.45,0.89,0.89,0,0,1-.14-0.51V4.59a0.87,0.87,0,0,1,.14-0.51,3.47,3.47,0,0,1,.42-0.45,1,1,0,0,1,.58-0.18h1.67V2.87a0.5,0.5,0,0,0,0-.15,1.41,1.41,0,0,0-.46-0.47,0.32,0.32,0,0,0-.17,0h-0.9a0.29,0.29,0,0,0-.16,0,1.65,1.65,0,0,0-.46.48l-0.5-.16a2,2,0,0,1,.14-0.22,2.76,2.76,0,0,1,.43-0.46,1,1,0,0,1,.58-0.17h0.88a1,1,0,0,1,.59.18,2.15,2.15,0,0,1,.43.45,0.85,0.85,0,0,1,.13.52V5.21L57,5.89H56.44Z" transform="translate(-0.04 0)"/><path class="cls-1" d="M61.12,2.69a1.38,1.38,0,0,0-.45-0.47,0.33,0.33,0,0,0-.17,0H59.79a0.31,0.31,0,0,0-.14,0,2.25,2.25,0,0,0-.73.58,0.15,0.15,0,0,0,0,.06V4.75h0a2.13,2.13,0,0,0,.73.58,0.31,0.31,0,0,0,.14,0H60.5a0.33,0.33,0,0,0,.17,0,1.38,1.38,0,0,0,.45-0.47,0.37,0.37,0,0,0,0-.16V2.82a0.37,0.37,0,0,0,0-.16m0,3a1,1,0,0,1-.58.18H59.79a0.92,0.92,0,0,1-.48-0.2,3,3,0,0,1-.37-0.34V7.41H58.42v-5l-0.06-.68h0.52l0.06,0.51a3,3,0,0,1,.37-0.36,0.93,0.93,0,0,1,.48-0.2h0.75a1,1,0,0,1,.58.18,2.77,2.77,0,0,1,.43.46,0.9,0.9,0,0,1,.14.51V4.75a0.9,0.9,0,0,1-.14.51,2.73,2.73,0,0,1-.43.46" transform="translate(-0.04 0)"/><path class="cls-1" d="M65.76,5.69a1,1,0,0,1-.58.18h-1a1,1,0,0,1-.59-0.18,2.81,2.81,0,0,1-.43-0.46A0.9,0.9,0,0,1,63,4.72V2.8a0.9,0.9,0,0,1,.13-0.51,2.85,2.85,0,0,1,.43-0.46,1,1,0,0,1,.59-0.18h0.94a1,1,0,0,1,.58.18,2.48,2.48,0,0,1,.56.68l-0.5.16a1.36,1.36,0,0,0-.46-0.49,0.32,0.32,0,0,0-.17,0h-1a0.33,0.33,0,0,0-.17,0,1.38,1.38,0,0,0-.45.47,0.37,0.37,0,0,0,0,.16V4.69a0.37,0.37,0,0,0,0,.16,1.36,1.36,0,0,0,.44.47,0.32,0.32,0,0,0,.17,0h1a0.32,0.32,0,0,0,.17,0,1.39,1.39,0,0,0,.45-0.47h0L66.24,5a2.18,2.18,0,0,1-.56.67" transform="translate(-0.04 0)"/><polygon class="cls-1" points="70.13 5.86 68.45 3.96 68.15 3.96 68.15 5.86 67.63 5.86 67.63 1.74 68.15 1.74 68.15 3.46 68.45 3.46 69.97 1.74 70.68 1.74 68.91 3.71 70.88 5.86 70.13 5.86"/><polygon class="cls-1" points="75.35 1.74 75.35 5.86 74.83 5.86 74.83 2.45 72.64 5.86 72.03 5.86 72.03 1.74 72.54 1.74 72.54 5.11 74.7 1.74 75.35 1.74"/><path class="cls-1" d="M79.39,0a0.91,0.91,0,0,1-.91.91h0a0.9,0.9,0,0,1-.9-0.9h0.36a0.54,0.54,0,0,0,.53.55h0A0.56,0.56,0,0,0,79,0h0.36Zm0.79,1.74V5.86H79.66V2.45L77.47,5.86H76.86V1.74h0.52V5.1l2.16-3.36h0.64Z" transform="translate(-0.04 0)"/><path class="cls-1" d="M86.19,5.69a1,1,0,0,1-.59.18h-1A1,1,0,0,1,84,5.69a2.72,2.72,0,0,1-.43-0.46,0.9,0.9,0,0,1-.13-0.51V2.8a0.9,0.9,0,0,1,.13-0.51A2.76,2.76,0,0,1,84,1.83a1,1,0,0,1,.59-0.18h1a1,1,0,0,1,.58.18,2.48,2.48,0,0,1,.56.68l-0.5.16a1.39,1.39,0,0,0-.46-0.49,0.32,0.32,0,0,0-.17,0h-1a0.32,0.32,0,0,0-.17,0,1.39,1.39,0,0,0-.45.47,0.39,0.39,0,0,0,0,.16V4.69a0.39,0.39,0,0,0,0,.16,1.37,1.37,0,0,0,.44.47,0.33,0.33,0,0,0,.17,0h1a0.32,0.32,0,0,0,.17,0,1.39,1.39,0,0,0,.45-0.47h0L86.67,5a2.19,2.19,0,0,1-.56.67" transform="translate(-0.04 0)"/><path class="cls-1" d="M90.81,2.87a0.41,0.41,0,0,0,0-.16,1.41,1.41,0,0,0-.46-0.47,0.33,0.33,0,0,0-.17,0h-1a0.33,0.33,0,0,0-.17,0,1.39,1.39,0,0,0-.45.47,0.41,0.41,0,0,0,0,.16V4.75a0.41,0.41,0,0,0,0,.16,1.4,1.4,0,0,0,.45.47,0.33,0.33,0,0,0,.17,0h0.9a0.33,0.33,0,0,0,.17,0,1.42,1.42,0,0,0,.46-0.47,0.41,0.41,0,0,0,0-.16V2.87h0.06Zm0.38,2.41a2.72,2.72,0,0,1-.43.46,1,1,0,0,1-.59.18h-1a1,1,0,0,1-.59-0.18,2.72,2.72,0,0,1-.43-0.46A0.9,0.9,0,0,1,88,4.77V2.85a0.9,0.9,0,0,1,.13-0.51,2.76,2.76,0,0,1,.43-0.46,1,1,0,0,1,.59-0.18h1a1,1,0,0,1,.59.18,2.76,2.76,0,0,1,.43.46,0.9,0.9,0,0,1,.13.51V4.77a0.9,0.9,0,0,1-.13.51" transform="translate(-0.04 0)"/><path class="cls-1" d="M95.54,4.79V4.69a0.34,0.34,0,0,0,0-.14,1.23,1.23,0,0,0-.41-0.43,0.37,0.37,0,0,0-.17,0H93.31V5.51H95a0.29,0.29,0,0,0,.16,0,1.21,1.21,0,0,0,.42-0.43,0.4,0.4,0,0,0,0-.16M93.28,2.33V3.68h1.65a0.41,0.41,0,0,0,.16,0,1.23,1.23,0,0,0,.42-0.44,0.39,0.39,0,0,0,0-.16V3a0.33,0.33,0,0,0,0-.14A1.22,1.22,0,0,0,95.1,2.4a0.35,0.35,0,0,0-.17,0H93.28V2.33Zm2.33,1.6a2.34,2.34,0,0,1,.31.34,0.9,0.9,0,0,1,.14.51V5a0.94,0.94,0,0,1-.14.49,1.82,1.82,0,0,1-.39.42,1,1,0,0,1-.58.18H92.78V1.69h2.17a1.13,1.13,0,0,1,.58.19,2,2,0,0,1,.39.41,1,1,0,0,1,.14.52V2.95a0.87,0.87,0,0,1-.14.48,2.85,2.85,0,0,1-.31.36" transform="translate(-0.04 0)"/><path class="cls-1" d="M97.94,2.87V3.54h2.25V2.87a0.41,0.41,0,0,0,0-.16,1.43,1.43,0,0,0-.46-0.47,0.32,0.32,0,0,0-.17,0h-1a0.29,0.29,0,0,0-.16,0,1.39,1.39,0,0,0-.46.47,0.36,0.36,0,0,0,0,.16m2.27,2L100.72,5a1.33,1.33,0,0,1-.13.21,2.81,2.81,0,0,1-.43.46,1,1,0,0,1-.58.18h-1A1,1,0,0,1,98,5.71a2.79,2.79,0,0,1-.43-0.46,0.9,0.9,0,0,1-.14-0.51V2.82a0.91,0.91,0,0,1,.14-0.51A2.83,2.83,0,0,1,98,1.85a1,1,0,0,1,.59-0.18h1a1,1,0,0,1,.59.18,2.85,2.85,0,0,1,.43.46,0.92,0.92,0,0,1,.13.51V4H98V4.72a0.36,0.36,0,0,0,0,.16,1.38,1.38,0,0,0,.45.47,0.29,0.29,0,0,0,.16,0h1a0.32,0.32,0,0,0,.17,0,1.43,1.43,0,0,0,.44-0.47h0Z" transform="translate(-0.04 0)"/><polygon class="cls-1" points="103.77 5.86 103.26 5.86 103.26 2.24 101.84 2.24 101.84 1.74 105.3 1.74 105.3 2.24 103.77 2.24 103.77 5.86"/><polygon class="cls-1" points="111.43 1.74 111.43 5.86 110.92 5.86 110.92 2.24 108.82 2.24 108.82 5.86 108.3 5.86 108.3 1.76 108.3 1.74 111.43 1.74"/><path class="cls-1" d="M115.67,2.87a0.37,0.37,0,0,0,0-.16,1.37,1.37,0,0,0-.46-0.47,0.32,0.32,0,0,0-.17,0h-0.92a0.33,0.33,0,0,0-.17,0,1.38,1.38,0,0,0-.45.47,0.36,0.36,0,0,0,0,.16V4.75a0.36,0.36,0,0,0,0,.16,1.39,1.39,0,0,0,.45.47,0.33,0.33,0,0,0,.17,0h0.94a0.32,0.32,0,0,0,.17,0,1.38,1.38,0,0,0,.46-0.47,0.37,0.37,0,0,0,0-.16V2.87h0ZM116,5.28a2.77,2.77,0,0,1-.43.46,1,1,0,0,1-.59.18h-1a1,1,0,0,1-.59-0.18A2.86,2.86,0,0,1,113,5.28a0.9,0.9,0,0,1-.13-0.51V2.85A0.9,0.9,0,0,1,113,2.34a2.9,2.9,0,0,1,.43-0.46A1,1,0,0,1,114,1.7h1a1,1,0,0,1,.59.18,2.81,2.81,0,0,1,.43.46,0.9,0.9,0,0,1,.13.51V4.77a0.9,0.9,0,0,1-.13.51" transform="translate(-0.04 0)"/><polygon class="cls-1" points="121.97 5.86 120.3 3.96 120 3.96 120 5.86 119.48 5.86 119.48 1.74 120 1.74 120 3.46 120.3 3.46 121.82 1.74 122.53 1.74 120.76 3.71 122.72 5.86 121.97 5.86"/><polygon class="cls-1" points="127.04 1.74 125.17 7.47 124.62 7.47 125.17 5.86 124.95 5.86 123.6 1.74 124.16 1.74 125.29 5.34 125.35 5.34 126.48 1.74 127.04 1.74"/><path class="cls-1" d="M131.48,1.75V5.87H131V2.25h-2V4.76a0.94,0.94,0,0,1-.14.52,2.8,2.8,0,0,1-.42.46,1.09,1.09,0,0,1-.6.18h-0.28V5.42h0.26a0.38,0.38,0,0,0,.18,0,1.48,1.48,0,0,0,.44-0.47,0.4,0.4,0,0,0,0-.16v-3h3Z" transform="translate(-0.04 0)"/><path class="cls-1" d="M135.76,4.79V4.69a0.34,0.34,0,0,0,0-.14,1.16,1.16,0,0,0-.41-0.43,0.34,0.34,0,0,0-.17,0H133.5V5.5h1.62a0.29,0.29,0,0,0,.16,0,1.22,1.22,0,0,0,.42-0.43,0.41,0.41,0,0,0,0-.16m0.52,0a0.94,0.94,0,0,1-.14.49,1.76,1.76,0,0,1-.39.42,1,1,0,0,1-.58.18h-2.2V1.83h0.52V3.62h1.69a1,1,0,0,1,.58.17,2,2,0,0,1,.39.42,0.9,0.9,0,0,1,.14.51V4.9h0Z" transform="translate(-0.04 0)"/><path class="cls-1" d="M148.79,2.69a1.41,1.41,0,0,0-.45-0.47,0.33,0.33,0,0,0-.17,0h-0.84a2.24,2.24,0,0,0-.73.58,0.14,0.14,0,0,0,0,.06V4.75h0a2.12,2.12,0,0,0,.73.58h0.79a0.33,0.33,0,0,0,.17,0,1.4,1.4,0,0,0,.45-0.47,0.39,0.39,0,0,0,0-.16V2.82a0.4,0.4,0,0,0,0-.16m0,3a1,1,0,0,1-.58.18h-0.75a0.93,0.93,0,0,1-.48-0.2,3,3,0,0,1-.37-0.34V7.41H146v-5L146,1.73h0.52l0.06,0.51a3,3,0,0,1,.37-0.36,0.93,0.93,0,0,1,.48-0.2h0.75a1,1,0,0,1,.58.18,2.72,2.72,0,0,1,.43.46,0.91,0.91,0,0,1,.14.51V4.75a0.9,0.9,0,0,1-.14.51,2.68,2.68,0,0,1-.43.46" transform="translate(-0.04 0)"/><path class="cls-1" d="M151.24,2.87V3.54h2.25V2.87a0.43,0.43,0,0,0,0-.16A1.45,1.45,0,0,0,153,2.24a0.32,0.32,0,0,0-.17,0h-1a0.29,0.29,0,0,0-.16,0,1.39,1.39,0,0,0-.46.47,0.36,0.36,0,0,0,0,.16m2.27,2L154,5a1.34,1.34,0,0,1-.13.21,2.77,2.77,0,0,1-.43.46,1,1,0,0,1-.58.18h-1a1,1,0,0,1-.59-0.18,2.79,2.79,0,0,1-.43-0.46,0.9,0.9,0,0,1-.14-0.51V2.82a0.9,0.9,0,0,1,.14-0.51,2.83,2.83,0,0,1,.43-0.46,1,1,0,0,1,.59-0.18h1a1,1,0,0,1,.59.18,2.75,2.75,0,0,1,.43.46,0.9,0.9,0,0,1,.14.51V4h-2.77V4.72a0.36,0.36,0,0,0,0,.16,1.36,1.36,0,0,0,.45.47,0.29,0.29,0,0,0,.16,0h1a0.32,0.32,0,0,0,.17,0,1.44,1.44,0,0,0,.44-0.47h0Z" transform="translate(-0.04 0)"/><path class="cls-1" d="M23.29,24.56H20.87V22.12H18v0.37a2.86,2.86,0,0,0,2.71,3h2.4a2.86,2.86,0,0,0,3-3V22.12H23.27v2.44h0Zm-0.15-8H21a2.87,2.87,0,0,0-3,2.73q0,0.13,0,.27V19.9h2.84V17.5h2.44v2.4h2.85V19.56a2.87,2.87,0,0,0-2.73-3H23.12" transform="translate(-0.04 0)"/><path class="cls-1" d="M5.19,23.55H3A0.93,0.93,0,0,1,2,22.49v-3A0.93,0.93,0,0,1,3,18.43H5.19a0.94,0.94,0,0,1,1.06,1.06v3a1,1,0,0,1-.94,1.06H5.19m0-7.09H3a2.91,2.91,0,0,0-3,2.82q0,0.09,0,.18v9.45H2V25.29H2.12a3.41,3.41,0,0,0,1,.16H5.27a2.91,2.91,0,0,0,3-2.82q0-.09,0-0.18v-3a2.91,2.91,0,0,0-2.82-3H5.27" transform="translate(-0.04 0)"/><path class="cls-1" d="M34.2,16.46H32a3.39,3.39,0,0,0-1,.17h-0.1V13.18h-2V25.51h2v-6a1,1,0,0,1,.93-1.06h2.3a0.93,0.93,0,0,1,1.06,1.06v6h2v-6a2.91,2.91,0,0,0-2.82-3H34.24" transform="translate(-0.04 0)"/><path class="cls-1" d="M88,25.54h2V16.47H88v9.07Zm2-12.31H88v2.09h2V13.23Z" transform="translate(-0.04 0)"/><path class="cls-1" d="M84.88,18.45v-2h-2.7V13.21h-2v3.24H78.44v2h1.74v4a2.88,2.88,0,0,0,2.75,3h1.85v-2h-1.6a0.94,0.94,0,0,1-1.06-1.07v-4h2.69Z" transform="translate(-0.04 0)"/><path class="cls-1" d="M54.18,23.57a0.94,0.94,0,0,1-1.06-1.07V13.24h-2V22.5a2.87,2.87,0,0,0,2.73,3h1.9v-2H54.12Z" transform="translate(-0.04 0)"/><path class="cls-1" d="M13.79,16.47a2.88,2.88,0,0,0-3,2.75q0,0.12,0,.25v6h2v-6a0.93,0.93,0,0,1,1.06-1.06h2.38v-2H13.85Z" transform="translate(-0.04 0)"/><path class="cls-1" d="M64,16.47l-0.85,3.15-1,3.4c-0.16.54-.17,0.59-0.57,0.59s-0.41,0-.53-0.48l-1.86-6.65h-2l2,7.1c0.43,1.49,1.07,2,2.46,2s2-.54,2.47-2.06l2-7.06H64Z" transform="translate(-0.04 0)"/><path class="cls-1" d="M43.12,18.34h2.15a1,1,0,0,1,1.17,1.17v0.61H42V19.51a1,1,0,0,1,1.17-1.17m2.15-1.87H43.12a2.91,2.91,0,0,0-3,2.82q0,0.09,0,.18v3a2.91,2.91,0,0,0,2.82,3h4.91v-2H43A1,1,0,0,1,42,22.4V21.88h5a1.39,1.39,0,0,0,1.38-1.4h0V19.41a2.91,2.91,0,0,0-2.82-3H45.35" transform="translate(-0.04 0)"/><path class="cls-1" d="M69.95,19.69a1.19,1.19,0,0,1,1-1.35h2.31a1,1,0,0,1,1.17,1.17v0.61H70V19.69h0Zm3.32-3.23H71.12a2.91,2.91,0,0,0-3,2.82q0,0.09,0,.18v3a2.91,2.91,0,0,0,2.82,3h4.9v-2H71A1,1,0,0,1,70,22.39V21.86h5a1.38,1.38,0,0,0,1.39-1.37s0,0,0,0V19.4a2.91,2.91,0,0,0-2.82-3H73.36" transform="translate(-0.04 0)"/><path class="cls-1" d="M98.35,23.69H95.68c-1,0-1.17-.51-1.17-0.9,0-.65.19-0.82,1-0.9l3.08-.33L99,21.47V23a0.58,0.58,0,0,1-.68.67m-0.47-7.2h-4v2h4a0.88,0.88,0,0,1,1,.84v0.14c0,0.12-.12.21-0.5,0.27l-3,.31c-2.38.26-2.73,1.84-2.73,2.77a2.77,2.77,0,0,0,2.76,2.78h2.91a2.42,2.42,0,0,0,2.53-2.3q0-.12,0-0.24v-3.5a2.89,2.89,0,0,0-2.78-3H97.82" transform="translate(-0.04 0)"/></svg>