<svg id="Layer_1" data-name="Layer 1" xmlns="http://www.w3.org/2000/svg" viewBox="0 0 100.88 28.86"><defs><style>.cls-1{fill:#474747;}</style></defs><title>ph_logo_byline_en_black_ENG</title><path class="cls-1" d="M279.95,413.86a2.25,2.25,0,0,1-.39.42,1,1,0,0,1-.58.18h-1.14a1,1,0,0,1-.58-0.18,2.56,2.56,0,0,1-.42-0.45,2.4,2.4,0,0,1-.13-0.22l0.49-.17a1.37,1.37,0,0,0,.45.48,0.33,0.33,0,0,0,.17,0H279a0.29,0.29,0,0,0,.16,0,1.21,1.21,0,0,0,.42-0.43,0.38,0.38,0,0,0,0-.16V413a0.37,0.37,0,0,0-.36-0.35l-1.57-.11a0.87,0.87,0,0,1-.83-0.86v-0.29a0.89,0.89,0,0,1,.14-0.5,2.25,2.25,0,0,1,.39-0.42,1,1,0,0,1,.58-0.18h1a1,1,0,0,1,.58.18,2.72,2.72,0,0,1,.43.46,1.16,1.16,0,0,1,.13.21l-0.49.17a1.4,1.4,0,0,0-.46-0.48,0.29,0.29,0,0,0-.16,0h-1a0.33,0.33,0,0,0-.17,0,1.15,1.15,0,0,0-.41.42,0.38,0.38,0,0,0,0,.16v0.29a0.37,0.37,0,0,0,.36.35l1.57,0.12a0.87,0.87,0,0,1,.83.86v0.34A0.89,0.89,0,0,1,279.95,413.86Z" transform="translate(-247.88 -408.67)"/><path class="cls-1" d="M285.58,414.41h-0.71l-1-3.49-1,3.49h-0.71L281,410.33h0.55l1,3.53h0.06l0.93-3.53h0.73l1,3.53h0.06l0.93-3.53h0.54Z" transform="translate(-247.88 -408.67)"/><path class="cls-1" d="M287.68,409.27v-0.61h0.59v0.61h-0.59Zm0,5.14v-4.08h0.51v4.08h-0.51Z" transform="translate(-247.88 -408.67)"/><path class="cls-1" d="M292.65,413.86a2.25,2.25,0,0,1-.39.42,1,1,0,0,1-.58.18h-1.14a1,1,0,0,1-.58-0.18,2.56,2.56,0,0,1-.42-0.45,2.44,2.44,0,0,1-.13-0.22l0.49-.17a1.37,1.37,0,0,0,.45.48,0.33,0.33,0,0,0,.17,0h1.15a0.29,0.29,0,0,0,.16,0,1.21,1.21,0,0,0,.42-0.43,0.38,0.38,0,0,0,0-.16V413a0.37,0.37,0,0,0-.36-0.35l-1.57-.11a0.87,0.87,0,0,1-.83-0.86v-0.29a0.89,0.89,0,0,1,.14-0.5,2.25,2.25,0,0,1,.39-0.42,1,1,0,0,1,.58-0.18h1a1,1,0,0,1,.58.18,2.72,2.72,0,0,1,.43.46,1.15,1.15,0,0,1,.13.21l-0.49.17a1.4,1.4,0,0,0-.46-0.48,0.29,0.29,0,0,0-.16,0h-1a0.33,0.33,0,0,0-.17,0,1.15,1.15,0,0,0-.41.42,0.38,0.38,0,0,0,0,.16v0.29a0.37,0.37,0,0,0,.36.35l1.57,0.12a0.87,0.87,0,0,1,.83.86v0.34A0.89,0.89,0,0,1,292.65,413.86Z" transform="translate(-247.88 -408.67)"/><path class="cls-1" d="M297.09,413.86a2.25,2.25,0,0,1-.39.42,1,1,0,0,1-.58.18H295a1,1,0,0,1-.58-0.18,2.56,2.56,0,0,1-.42-0.45,2.39,2.39,0,0,1-.13-0.22l0.49-.17a1.37,1.37,0,0,0,.45.48,0.33,0.33,0,0,0,.17,0h1.15a0.29,0.29,0,0,0,.16,0,1.21,1.21,0,0,0,.42-0.43,0.38,0.38,0,0,0,0-.16V413a0.37,0.37,0,0,0-.36-0.35l-1.57-.11a0.87,0.87,0,0,1-.83-0.86v-0.29a0.89,0.89,0,0,1,.14-0.5,2.25,2.25,0,0,1,.39-0.42,1,1,0,0,1,.58-0.18h1a1,1,0,0,1,.58.18,2.72,2.72,0,0,1,.43.46,1.16,1.16,0,0,1,.13.21l-0.49.17a1.4,1.4,0,0,0-.46-0.48,0.29,0.29,0,0,0-.16,0h-1a0.33,0.33,0,0,0-.17,0,1.15,1.15,0,0,0-.41.42,0.38,0.38,0,0,0,0,.16v0.29a0.37,0.37,0,0,0,.36.35l1.57,0.12a0.87,0.87,0,0,1,.83.86v0.34A0.89,0.89,0,0,1,297.09,413.86Z" transform="translate(-247.88 -408.67)"/><path class="cls-1" d="M303.3,414.41l-0.06-.47a2.79,2.79,0,0,1-.36.32,0.85,0.85,0,0,1-.47.2h-0.84a1,1,0,0,1-.58-0.18,3.49,3.49,0,0,1-.42-0.45,0.89,0.89,0,0,1-.14-0.5v-0.19a0.87,0.87,0,0,1,.14-0.5,3.49,3.49,0,0,1,.42-0.45,1,1,0,0,1,.58-0.18h1.65v-0.58a0.47,0.47,0,0,0,0-.15,1.42,1.42,0,0,0-.46-0.47,0.33,0.33,0,0,0-.17,0H301.7a0.3,0.3,0,0,0-.16,0,1.67,1.67,0,0,0-.46.47l-0.49-.16a1.74,1.74,0,0,1,.14-0.22,2.74,2.74,0,0,1,.43-0.46,1,1,0,0,1,.57-0.17h0.87a1,1,0,0,1,.59.18,2.08,2.08,0,0,1,.43.45,0.84,0.84,0,0,1,.13.51v2.32l0.07,0.67H303.3Zm-0.07-1.05V412.5h-1.64a0.31,0.31,0,0,0-.17,0,1.3,1.3,0,0,0-.44.45,0.32,0.32,0,0,0,0,.15v0.19a0.33,0.33,0,0,0,0,.15,1.32,1.32,0,0,0,.44.45,0.32,0.32,0,0,0,.17,0h0.8a0.31,0.31,0,0,0,.13,0A2.09,2.09,0,0,0,303.23,413.36Z" transform="translate(-247.88 -408.67)"/><path class="cls-1" d="M307.62,411.29a1.85,1.85,0,0,0-.46-0.47,0.33,0.33,0,0,0-.17,0h-0.47a0.35,0.35,0,0,0-.14,0,2.12,2.12,0,0,0-.72.58v3h-0.51V411l-0.06-.67h0.51l0.06,0.48a2.68,2.68,0,0,1,.36-0.33,0.91,0.91,0,0,1,.47-0.2H307a1,1,0,0,1,.58.18,2.64,2.64,0,0,1,.42.46l0.14,0.21Z" transform="translate(-247.88 -408.67)"/><path class="cls-1" d="M309.95,410.82v2.43a0.47,0.47,0,0,0,0,.18,1.29,1.29,0,0,0,.43.45,0.4,0.4,0,0,0,.19,0h0.6v0.49h-0.61a1,1,0,0,1-.58-0.18,2.67,2.67,0,0,1-.43-0.46,0.89,0.89,0,0,1-.14-0.5v-2.45h-0.68v-0.49h0.68v-1.62h0.51v1.62h1.25v0.49h-1.25Z" transform="translate(-247.88 -408.67)"/><path class="cls-1" d="M315.31,413.86a2.24,2.24,0,0,1-.39.42,1,1,0,0,1-.58.18H313.2a1,1,0,0,1-.58-0.18,2.6,2.6,0,0,1-.42-0.45c0-.08-0.11-0.17-0.13-0.22l0.49-.17a1.37,1.37,0,0,0,.45.48,0.32,0.32,0,0,0,.17,0h1.15a0.29,0.29,0,0,0,.16,0,1.21,1.21,0,0,0,.42-0.43,0.39,0.39,0,0,0,0-.16V413a0.37,0.37,0,0,0-.36-0.35l-1.57-.11a0.87,0.87,0,0,1-.83-0.86v-0.29a0.9,0.9,0,0,1,.14-0.5,2.24,2.24,0,0,1,.39-0.42,1,1,0,0,1,.58-0.18h1a1,1,0,0,1,.58.18,2.73,2.73,0,0,1,.43.46,1.19,1.19,0,0,1,.13.21l-0.49.17a1.4,1.4,0,0,0-.45-0.48,0.3,0.3,0,0,0-.16,0h-1a0.33,0.33,0,0,0-.17,0,1.15,1.15,0,0,0-.41.42,0.37,0.37,0,0,0,0,.16v0.29a0.37,0.37,0,0,0,.36.35l1.57,0.12a0.87,0.87,0,0,1,.83.86v0.34A0.9,0.9,0,0,1,315.31,413.86Z" transform="translate(-247.88 -408.67)"/><path class="cls-1" d="M321.55,414.28a1,1,0,0,1-.58.18h-1a1,1,0,0,1-.59-0.18,2.72,2.72,0,0,1-.43-0.46,0.88,0.88,0,0,1-.13-0.5v-1.9a0.88,0.88,0,0,1,.13-0.5,2.72,2.72,0,0,1,.43-0.46,1,1,0,0,1,.59-0.18h0.94a1,1,0,0,1,.58.18,2.45,2.45,0,0,1,.56.67l-0.49.16a1.39,1.39,0,0,0-.46-0.48,0.32,0.32,0,0,0-.17,0h-1a0.32,0.32,0,0,0-.17,0,1.4,1.4,0,0,0-.45.47,0.37,0.37,0,0,0,0,.16v1.86a0.37,0.37,0,0,0,0,.16,1.37,1.37,0,0,0,.44.47,0.32,0.32,0,0,0,.17,0h1a0.33,0.33,0,0,0,.17,0,1.39,1.39,0,0,0,.45-0.47v0l0.49,0.17A2.15,2.15,0,0,1,321.55,414.28Z" transform="translate(-247.88 -408.67)"/><path class="cls-1" d="M326.3,413.83a2.67,2.67,0,0,1-.43.46,1,1,0,0,1-.59.18h-1a1,1,0,0,1-.59-0.18,2.72,2.72,0,0,1-.43-0.46,0.89,0.89,0,0,1-.13-0.5v-1.9a0.89,0.89,0,0,1,.13-0.5,2.72,2.72,0,0,1,.43-0.46,1,1,0,0,1,.59-0.18h1a1,1,0,0,1,.59.18,2.68,2.68,0,0,1,.43.46,0.88,0.88,0,0,1,.13.5v1.9A0.88,0.88,0,0,1,326.3,413.83Zm-0.38-2.38a0.39,0.39,0,0,0,0-.16,1.42,1.42,0,0,0-.46-0.47,0.33,0.33,0,0,0-.17,0h-0.93a0.32,0.32,0,0,0-.17,0,1.4,1.4,0,0,0-.45.47,0.39,0.39,0,0,0,0,.16v1.86a0.39,0.39,0,0,0,0,.16,1.4,1.4,0,0,0,.45.47,0.32,0.32,0,0,0,.17,0h0.93a0.33,0.33,0,0,0,.17,0,1.42,1.42,0,0,0,.46-0.47,0.38,0.38,0,0,0,0-.16v-1.86Z" transform="translate(-247.88 -408.67)"/><path class="cls-1" d="M330.42,414.41l-0.06-.47a2.57,2.57,0,0,1-.35.32,0.91,0.91,0,0,1-.47.2h-0.71a1,1,0,0,1-.59-0.18,2.67,2.67,0,0,1-.43-0.46,0.88,0.88,0,0,1-.13-0.5v-3h0.51v3a0.38,0.38,0,0,0,0,.16,1.42,1.42,0,0,0,.46.47,0.33,0.33,0,0,0,.17,0h0.67a0.31,0.31,0,0,0,.13,0,2.29,2.29,0,0,0,.71-0.57v-3h0.51v3.41l0.07,0.67h-0.51Z" transform="translate(-247.88 -408.67)"/><path class="cls-1" d="M335,414.41v-3a0.4,0.4,0,0,0,0-.16,1.41,1.41,0,0,0-.46-0.47,0.33,0.33,0,0,0-.17,0h-0.67a0.31,0.31,0,0,0-.13,0,2.28,2.28,0,0,0-.71.57v3h-0.51V411l-0.07-.67h0.51l0.06,0.47a2.77,2.77,0,0,1,.35-0.32,0.92,0.92,0,0,1,.48-0.2h0.71a1,1,0,0,1,.59.18,2.73,2.73,0,0,1,.43.46,0.89,0.89,0,0,1,.13.5v3H335Z" transform="translate(-247.88 -408.67)"/><path class="cls-1" d="M339.49,414.28a1,1,0,0,1-.58.18h-1a1,1,0,0,1-.59-0.18,2.72,2.72,0,0,1-.43-0.46,0.89,0.89,0,0,1-.13-0.5v-1.9a0.89,0.89,0,0,1,.13-0.5,2.72,2.72,0,0,1,.43-0.46,1,1,0,0,1,.59-0.18h0.94a1,1,0,0,1,.58.18,2.45,2.45,0,0,1,.56.67l-0.49.16a1.41,1.41,0,0,0-.46-0.48,0.33,0.33,0,0,0-.17,0h-1a0.33,0.33,0,0,0-.17,0,1.4,1.4,0,0,0-.45.47,0.39,0.39,0,0,0,0,.16v1.86a0.39,0.39,0,0,0,0,.16,1.37,1.37,0,0,0,.44.47,0.33,0.33,0,0,0,.17,0h1a0.33,0.33,0,0,0,.17,0,1.39,1.39,0,0,0,.45-0.47v0l0.49,0.17A2.18,2.18,0,0,1,339.49,414.28Z" transform="translate(-247.88 -408.67)"/><path class="cls-1" d="M341.21,409.27v-0.61h0.59v0.61h-0.59Zm0,5.14v-4.08h0.51v4.08h-0.51Z" transform="translate(-247.88 -408.67)"/><path class="cls-1" d="M343.27,414.41a5.26,5.26,0,0,1-.08-0.53v-5.17h0.51v5.05c0,0.21.07,0.44,0.09,0.65h-0.51Z" transform="translate(-247.88 -408.67)"/><path class="cls-1" d="M271.17,433.13h-2.42v-2.44h-2.86v0.38a2.86,2.86,0,0,0,3,3H271a2.86,2.86,0,0,0,3-3v-0.37h-2.85v2.44Zm-0.14-8h-2.15a2.87,2.87,0,0,0-3,3v0.34h2.84V426h2.44v2.4H274v-0.34A2.87,2.87,0,0,0,271,425.09Z" transform="translate(-247.88 -408.67)"/><path class="cls-1" d="M253.07,432.13h-2.15a0.93,0.93,0,0,1-1.06-1.06v-3a0.93,0.93,0,0,1,1.06-1.06h2.15a0.94,0.94,0,0,1,1.06,1.06v3A1,1,0,0,1,253.07,432.13Zm0-7.09h-2.15a2.91,2.91,0,0,0-3,3v9.45h2v-3.62a0.21,0.21,0,0,0,.08,0,3.37,3.37,0,0,0,1,.16h2.15a2.91,2.91,0,0,0,3-3v-3A2.91,2.91,0,0,0,253.07,425Z" transform="translate(-247.88 -408.67)"/><path class="cls-1" d="M282.08,425h-2.15a3.39,3.39,0,0,0-1,.17l-0.1,0v-3.45h-1.95v12.32h2v-6a1,1,0,0,1,1.08-1.06h2.15a0.93,0.93,0,0,1,1.06,1.06v6h2v-6A2.91,2.91,0,0,0,282.08,425Z" transform="translate(-247.88 -408.67)"/><path class="cls-1" d="M335.84,434.11h2V425h-2v9.07Zm2-12.31h-2v2.09h2V421.8Z" transform="translate(-247.88 -408.67)"/><path class="cls-1" d="M332.76,427v-2h-2.7V421.8h-2V425h-1.73v2h1.74v4a2.88,2.88,0,0,0,3,3h1.6v-2h-1.6a0.94,0.94,0,0,1-1.06-1.07v-4h2.7Z" transform="translate(-247.88 -408.67)"/><path class="cls-1" d="M302.05,432.14a0.94,0.94,0,0,1-1.05-1.07V421.8h-2v9.26a2.87,2.87,0,0,0,3,3h1.63v-2h-1.63Z" transform="translate(-247.88 -408.67)"/><path class="cls-1" d="M261.67,425a2.88,2.88,0,0,0-3,3v6h2v-6a0.93,0.93,0,0,1,1.06-1.06h2.39v-2h-2.39Z" transform="translate(-247.88 -408.67)"/><path class="cls-1" d="M311.85,425L311,428.19,310,431.59c-0.16.54-.17,0.59-0.57,0.59s-0.4,0-.53-0.48L307.07,425H305l2,7.1c0.43,1.49,1.07,2,2.46,2s2-.54,2.47-2.06l2-7.06h-2.05Z" transform="translate(-247.88 -408.67)"/><path class="cls-1" d="M291,426.91h2.15a1,1,0,0,1,1.17,1.17v0.61h-4.49v-0.61A1.05,1.05,0,0,1,291,426.91Zm2.15-1.87H291a2.91,2.91,0,0,0-3,3v3a2.91,2.91,0,0,0,3,3h4.73v-2h-4.82a1,1,0,0,1-1.06-1.07v-0.52h5a1.39,1.39,0,0,0,1.38-1.4v-1.07A2.91,2.91,0,0,0,293.16,425Z" transform="translate(-247.88 -408.67)"/><path class="cls-1" d="M317.83,428.27a1.19,1.19,0,0,1,1.17-1.36h2.15a1,1,0,0,1,1.17,1.17v0.61h-4.49v-0.42Zm3.32-3.23H319a2.91,2.91,0,0,0-3,3v3a2.91,2.91,0,0,0,3,3h4.72v-2h-4.81a1,1,0,0,1-1.06-1.07v-0.53h5a1.38,1.38,0,0,0,1.38-1.39v-1.07A2.91,2.91,0,0,0,321.14,425Z" transform="translate(-247.88 -408.67)"/><path class="cls-1" d="M346.23,432.24h-2.68c-1,0-1.17-.51-1.17-0.9,0-.65.19-0.81,1-0.9l3.08-.33,0.4-.09v1.55A0.58,0.58,0,0,1,346.23,432.24Zm-0.47-7.2h-4v2h4a0.88,0.88,0,0,1,1,.84V428c0,0.12-.12.21-0.51,0.27l-3,.31c-2.37.26-2.73,1.84-2.73,2.77a2.77,2.77,0,0,0,3,2.77h2.68a2.42,2.42,0,0,0,2.53-2.54v-3.5A2.89,2.89,0,0,0,345.76,425Z" transform="translate(-247.88 -408.67)"/></svg>