<svg width="101" height="16" viewBox="0 0 101 16" fill="none" xmlns="http://www.w3.org/2000/svg">
<mask id="mask0" mask-type="alpha" maskUnits="userSpaceOnUse" x="0" y="3" width="27" height="13">
<path d="M26.138 15.94H0V3.50601H26.138V15.94Z" fill="white"/>
</mask>
<g mask="url(#mask0)">
<path fill-rule="evenodd" clip-rule="evenodd" d="M23.143 3.55501H20.996C19.233 3.55501 18.002 4.78901 18.002 6.54801V6.89101H20.844V4.49001H23.288V6.89001H26.138V6.55001C26.138 4.79001 24.908 3.55701 23.143 3.55701V3.55501ZM23.288 11.598H20.865V9.16201H18.002V9.53701C18.002 11.297 19.232 12.529 20.996 12.529H23.143C24.907 12.529 26.138 11.297 26.138 9.53601V9.16101H23.288V11.597V11.598ZM5.19 3.50601H3.04C1.25 3.50601 0 4.75801 0 6.54801V15.998L1.984 16V12.376C1.989 12.394 2.067 12.42 2.067 12.42C2.429 12.527 2.737 12.578 3.041 12.578H5.191C6.981 12.578 8.231 11.328 8.231 9.53801V6.54801C8.231 4.75801 6.981 3.50601 5.191 3.50601H5.19ZM5.19 10.596H3.04C2.33 10.596 1.984 10.25 1.984 9.53601V6.55001C1.984 5.83801 2.331 5.49401 3.041 5.49401H5.191C5.881 5.49401 6.247 5.85901 6.247 6.55001V9.54001C6.247 10.23 5.882 10.596 5.191 10.597L5.19 10.596Z" fill="#474747"/>
</g>
<path fill-rule="evenodd" clip-rule="evenodd" d="M34.2 3.506H32.053C31.773 3.506 31.453 3.562 31.081 3.676L30.978 3.704V0.253998H29.028L29.014 12.578H30.978V6.548C30.978 5.868 31.36 5.492 32.054 5.492H34.2C34.914 5.492 35.26 5.836 35.26 6.548V12.578H37.243V6.548C37.243 4.758 35.993 3.506 34.201 3.506H34.2ZM89.924 0.265998H87.956V2.352H89.924V0.265998ZM87.956 12.578H89.924V3.508L87.954 3.506L87.956 12.578ZM84.878 5.492L84.881 3.508L82.184 3.506V0.265998H80.2L80.198 3.508L78.464 3.506V5.492H80.2L80.198 9.537C80.198 11.355 81.422 12.577 83.242 12.577H84.846V10.61H83.242C82.529 10.61 82.182 10.25 82.182 9.537V5.492H84.878V5.492ZM54.173 10.61C53.463 10.61 53.117 10.25 53.117 9.537V0.272998H51.147L51.145 9.537C51.145 11.355 52.352 12.577 54.173 12.577H55.803V10.61H54.173ZM13.793 3.514C11.973 3.514 10.75 4.738 10.75 6.554V12.578H12.735V6.555C12.735 5.845 13.082 5.498 13.793 5.498H16.178V3.516L13.793 3.514V3.514ZM63.97 3.515L63.086 6.655L62.141 10.062C61.981 10.607 61.971 10.652 61.576 10.652C61.189 10.652 61.171 10.618 61.044 10.17L59.189 3.515H57.119L59.114 10.617C59.542 12.107 60.187 12.637 61.576 12.637C62.966 12.637 63.613 12.097 64.042 10.577L66.027 3.515H63.97ZM45.278 3.506H43.13C41.34 3.506 40.09 4.758 40.09 6.548V9.538C40.09 11.328 41.34 12.578 43.13 12.578H47.855V10.608L43.04 10.61C42.348 10.61 41.982 10.228 41.982 9.537V9.017H46.935C47.605 9.017 48.32 8.492 48.32 7.621V6.55C48.32 4.76 47.07 3.508 45.278 3.508V3.506ZM43.13 5.38H45.278C46.056 5.38 46.45 5.773 46.45 6.548V7.154H41.96V6.548C41.96 5.793 42.376 5.378 43.13 5.378V5.38ZM73.264 3.506H71.114C69.324 3.506 68.072 4.758 68.072 6.548V9.538C68.072 11.328 69.322 12.578 71.115 12.578H75.839V10.608L71.024 10.61C70.334 10.61 69.968 10.228 69.968 9.537V9.009H74.92C75.586 9.009 76.305 8.491 76.305 7.619V6.55C76.305 4.76 75.053 3.508 73.262 3.508L73.264 3.506ZM69.944 6.734C69.944 5.91 70.404 5.379 71.114 5.379H73.264C74.039 5.379 74.434 5.772 74.434 6.547V7.153H69.944V6.733V6.734ZM97.88 3.506H93.9V5.492H97.883C98.487 5.492 98.825 5.772 98.886 6.329V6.464C98.864 6.584 98.771 6.672 98.381 6.729L95.365 7.039C92.99 7.296 92.635 8.883 92.635 9.809C92.635 11.722 94.162 12.577 95.678 12.577H98.353C99.847 12.577 100.886 11.534 100.886 10.042V6.547C100.886 4.757 99.653 3.505 97.884 3.505L97.88 3.506ZM98.35 10.709H95.675C94.625 10.709 94.505 10.195 94.505 9.809C94.505 9.163 94.698 8.995 95.542 8.911L98.625 8.578L99.029 8.486V10.041C99.029 10.507 98.813 10.707 98.349 10.707L98.35 10.709Z" fill="#474747"/>
</svg>
