<svg width="67" height="67" viewBox="0 0 67 67" fill="none" xmlns="http://www.w3.org/2000/svg">
<path fill-rule="evenodd" clip-rule="evenodd" d="M36.6569 36.7991C33.5327 39.9233 28.4673 39.9233 25.3431 36.7991C22.219 33.6749 22.219 28.6096 25.3431 25.4854C28.4673 22.3612 33.5327 22.3612 36.6569 25.4854C39.781 28.6096 39.781 33.6749 36.6569 36.7991ZM37.3291 38.8855C33.4011 42.104 27.5955 41.8799 23.9289 38.2133C20.0237 34.3081 20.0237 27.9764 23.9289 24.0712C27.8342 20.1659 34.1658 20.1659 38.0711 24.0712C41.7377 27.7378 41.9617 33.5433 38.7433 37.4713L43.2739 42.0019C43.4691 42.1971 43.4691 42.5137 43.2739 42.709L42.5668 43.4161C42.3715 43.6114 42.0549 43.6114 41.8597 43.4161L37.3291 38.8855Z" fill="#474747"/>
</svg>
