<svg width="67" height="67" viewBox="0 0 67 67" fill="none" xmlns="http://www.w3.org/2000/svg">
<path fill-rule="evenodd" clip-rule="evenodd" d="M36.6568 36.7991C33.5326 39.9233 28.4673 39.9233 25.3431 36.7991C22.2189 33.6749 22.2189 28.6096 25.3431 25.4854C28.4673 22.3612 33.5326 22.3612 36.6568 25.4854C39.781 28.6096 39.781 33.6749 36.6568 36.7991ZM37.329 38.8855C33.401 42.104 27.5955 41.8799 23.9289 38.2133C20.0236 34.3081 20.0236 27.9764 23.9289 24.0712C27.8341 20.1659 34.1658 20.1659 38.071 24.0712C41.7376 27.7378 41.9617 33.5433 38.7432 37.4713L43.2738 42.0019C43.4691 42.1971 43.4691 42.5137 43.2738 42.709L42.5667 43.4161C42.3715 43.6114 42.0549 43.6114 41.8596 43.4161L37.329 38.8855Z" fill="white"/>
</svg>
