<?xml version="1.0" encoding="utf-8"?>
<!-- Generator: Adobe Illustrator 24.1.0, SVG Export Plug-In . SVG Version: 6.00 Build 0)  -->
<svg version="1.1" id="Слой_1" xmlns="http://www.w3.org/2000/svg" xmlns:xlink="http://www.w3.org/1999/xlink" x="0px" y="0px"
	 viewBox="0 0 1391 1200" style="enable-background:new 0 0 1391 1200;" xml:space="preserve">
<style type="text/css">
	.st0{fill:#D084FF;}
	.st1{fill:none;stroke:#D084FF;stroke-width:6.4957;stroke-miterlimit:10;}
</style>
<g>
	<defs>
		<rect id="SVGID_1_" width="1391" height="1200"/>
	</defs>
	<clipPath id="SVGID_2_">
		<use xlink:href="#SVGID_1_"  style="overflow:visible;"/>
	</clipPath>
	<g style="clip-path:url(#SVGID_2_);">
		
			<image style="overflow:visible;" width="3000" height="2586" xlink:href="../../../../../Users/arina/Desktop/francoise caracao.png"  transform="matrix(0.7178 0 0 0.7178 -381.1291 -256.6757)">
		</image>
	</g>
</g>
<circle class="st0" cx="684" cy="491.5" r="35"/>
<polyline class="st1" points="672.6,485.9 648.3,480.5 602.5,472.4 591.7,442.7 583.6,423.8 594.4,402.2 602.5,372.6 602.5,337.5 
	605.2,297 597.1,275.4 605.2,259.3 628.1,253.9 640.3,251.2 640.1,224.5 628.1,171.8 603.5,162.2 601.5,157.7 569.7,192.6 581,217 
	581,243.3 588.5,260.3 584.7,275.3 614.8,288.4 637.4,290.3 643,299.5 646.8,341.8 641.5,424.7 679.3,444.4 676.2,463.1 
	684.2,464.7 690.1,458.9 692.7,449.4 727.4,468.1 760.8,485.9 746.2,514.9 764.9,537 776.6,561.3 748.5,600 803,642.1 862.7,738.8 
	853.9,747.5 767.8,721.2 764.3,733.5 746.7,761.6 745,777.4 732.7,782.6 718.6,782.6 716.2,795 722.9,803.9 712.6,809.9 
	708.3,832.1 706.6,848.7 688.4,866.9 685.1,911.4 756.9,983.2 795.6,1018.7 808.8,1022 812.7,1029.2 798.4,1045.2 780.1,1061.2 
	695.5,1071.2 659.3,1080.8 648.6,1070.2 638,984.2 611,966.8 545.2,968.7 529.8,955.2 537.5,941.7 589.7,957.1 614.8,949.4 
	622.6,935.9 616.8,843.1 607.1,740.7 601.3,698.1 653.5,694.3 662.5,687.2 674.2,688.5 669,675.4 646.9,659.4 634,652.9 639,641.4 
	637.3,635.6 613.5,616.9 627.1,598.2 649.2,613.5 666.3,616.9 686.7,619.3 722.4,659.5 776.8,610.1 797.2,581.2 832.9,586.3 
	846.5,586.3 926.5,479.2 926.5,467.3 914.6,390.7 873.8,397.5 855,452 802.3,557.4 787.9,571.9 700.3,499.6 "/>
</svg>
