<?xml version="1.0" standalone="no"?>
<!DOCTYPE svg PUBLIC "-//W3C//DTD SVG 20010904//EN"
 "http://www.w3.org/TR/2001/REC-SVG-20010904/DTD/svg10.dtd">
<svg version="1.0" xmlns="http://www.w3.org/2000/svg"
 width="700.000000pt" height="700.000000pt" viewBox="0 0 700.000000 700.000000"
 preserveAspectRatio="xMidYMid meet">
<metadata>
Created by potrace 1.11, written by Peter Selinger 2001-2013
</metadata>
<g transform="translate(0.000000,700.000000) scale(0.100000,-0.100000)"
fill="#000000" stroke="none">
<path d="M3278 6995 c-1 -1 -41 -5 -88 -9 -87 -7 -105 -9 -225 -27 -116 -18
-123 -19 -192 -35 -184 -42 -248 -59 -369 -99 -264 -88 -538 -216 -759 -356
-696 -437 -1220 -1109 -1475 -1889 -28 -87 -75 -256 -85 -311 -3 -13 -11 -58
-20 -99 -29 -147 -36 -200 -52 -370 -15 -165 -8 -592 12 -711 2 -13 6 -46 9
-74 9 -78 23 -156 51 -285 31 -142 110 -393 174 -554 65 -161 209 -437 300
-576 84 -127 253 -349 326 -426 243 -261 429 -421 682 -590 77 -52 145 -94
149 -94 4 0 15 -6 23 -14 29 -25 304 -161 431 -213 138 -56 347 -126 445 -149
6 -1 48 -11 95 -22 110 -27 201 -44 295 -57 22 -2 56 -7 75 -10 186 -26 698
-27 838 0 16 3 104 15 147 20 324 41 869 235 1167 415 37 22 70 40 73 40 3 0
11 5 18 10 7 6 62 43 122 83 253 168 492 376 678 592 33 39 63 72 67 75 17 13
181 236 245 335 219 336 406 779 481 1140 16 79 54 301 59 350 4 33 9 71 11
85 9 46 11 524 4 605 -12 128 -21 202 -25 227 -3 13 -8 43 -11 68 -9 67 -70
335 -94 412 -11 37 -21 70 -21 73 0 11 -74 208 -116 310 -210 503 -561 973
-995 1335 -225 187 -582 407 -818 505 -36 14 -83 34 -105 44 -115 52 -392 136
-563 172 -54 11 -106 22 -117 25 -11 2 -38 6 -60 9 -22 3 -51 7 -65 10 -13 2
-52 7 -86 11 -33 3 -74 8 -90 10 -32 5 -540 14 -546 9z m-377 -1716 c5 -10 23
-57 39 -105 17 -49 35 -98 40 -109 5 -11 23 -60 40 -110 17 -49 37 -106 45
-125 7 -19 48 -132 90 -250 42 -118 85 -237 95 -265 10 -27 41 -113 68 -190
52 -144 75 -209 144 -400 78 -217 164 -484 197 -609 20 -76 27 -94 34 -85 2 2
16 54 32 114 38 152 133 437 259 780 59 160 127 346 152 415 25 69 49 134 54
145 14 33 41 107 57 155 8 25 19 56 25 70 6 14 56 151 113 305 l102 280 237 1
c130 0 236 -3 236 -8 0 -8 -551 -1488 -571 -1533 -4 -11 -126 -335 -269 -720
-233 -625 -279 -746 -309 -820 -5 -11 -32 -78 -61 -150 -111 -273 -203 -428
-323 -542 -105 -99 -209 -153 -347 -181 -78 -15 -262 -6 -345 17 -44 12 -86
25 -93 29 -6 5 -14 26 -16 47 -3 22 -10 84 -16 139 -7 54 -13 106 -15 115 -2
9 -6 47 -9 83 l-7 67 33 -9 c190 -51 389 -41 504 26 115 67 168 154 279 457
l58 158 -58 152 c-32 84 -72 190 -90 237 -18 47 -54 141 -80 210 -26 69 -58
152 -70 185 -13 33 -33 87 -45 120 -12 33 -25 69 -30 80 -5 11 -77 200 -160
420 -83 220 -155 409 -160 420 -5 11 -18 47 -30 80 -11 33 -25 69 -30 80 -5
11 -50 130 -100 265 -51 135 -98 259 -106 277 -8 17 -14 34 -14 37 0 8 -65
180 -85 222 -7 18 -12 34 -9 36 2 3 117 4 255 4 221 -1 251 -3 260 -17z"/>
</g>
</svg>
