<?xml version="1.0" encoding="utf-8"?>
<!-- Generator: Adobe Illustrator 24.1.0, SVG Export Plug-In . SVG Version: 6.00 Build 0)  -->
<svg version="1.1" id="Слой_1" xmlns="http://www.w3.org/2000/svg" xmlns:xlink="http://www.w3.org/1999/xlink" x="0px" y="0px"
	 viewBox="0 0 1391 1200" style="enable-background:new 0 0 1391 1200;" xml:space="preserve">
<style type="text/css">
	.st0{fill:none;stroke:#D084FF;stroke-width:6.4957;stroke-miterlimit:10;}
	.st1{fill:#D084FF;}
</style>
<image style="overflow:visible;" width="1391" height="1200" xlink:href="../png/andrea2.png" >
</image>
<path class="st0" d="M524,131.9l109.9,87.5l33.3-39.8l31.7-47.7l108.5,88.8l17.3-11.5l17.3-2.8l88.3-111.8l81.6,55.4l11.5,8.6
	l-16.3,22l13.4,10.5l1,12.5l-7.7,14.3l-19.2,12.5l-16.3-2.8L960.1,211l-80.7,105.1l3.8,13.4c0,0-9.6,21-15.4,21s-13.4-1-13.4-1
	l-9.6,11.5L816,376.3l-5.7-2.8l-55.6,19.2l25,69.7l42.2-12.5l1-6.7l5.2-1.2l3.9,6.2l-4.1,2.9l-5.3-1.5l-42.8,12.7l-28.5,94.6
	l-11.6-3.8l-27.4-4.5l-38.2,2.6l-40.8,4.2l-59.8,20.5l-19.3,2.6v5.8l-68.6,19.5l-1.3-6.2h-6.5l-5.2-27.9V560L286,559.3l2.9,47.4
	l-4.3,32.7l-44.9-13.7l-72,1.2l-20.1,2.3l5.2,50.5l2.9,52.2l9.7,15.5l10.9,89.4l1.2,14.9h24.8l8,2.8H227l15.6,4l5.2-4l111.7,42.4
	h19.1l4-31h5.7l4,8.6l70.9-38.4l17.9,40.2l24.1,38.4l42,84.9l123.3,118.8l6.9-6.3l-7.5-12l1.2-10.3l13.9-9.2l18.4,6.9l-2.9,5.2
	l10.4,11.5l6.9-1.2l7.5-10.9l-13.2-12l-4-10.9l2.9-13.2l9.7-10.9v-6.3l-8.9-8.9l-10.6,0.3l-9.2-5.7l-7.7,7.4l-21.3-21.8l21.9-23
	l-17.9-17.8l-32.3-34.4l12.7-20l84.1,56.7l14.4,11.5l25.9,16l17.9,42.4l1.7,35.5l27.6-29.2l34.5-47.6l62.3-21.2l8.7,46.4l-0.5,30.4
	l10.4,1.7l16.7-21.8l51.3-83.1l16.7-24.7l19.6-23.5l10.9-6.3l14.4,12l-2.9,31l2.3,4l46.7-44.7l-43.7-48.7l-23.1-23l-42-20.7
	L955.1,793l-13.9-10.9l-31.7-16.7l10.9-27.5l-40.9-12l28.3-90l50.7,17.2l20.1,5.2l8.7-27l22.5-20.7l13.2,6.9l49.6,15.5l41.5,13.7
	l34.5,8l30-18.9l36.3-21.2l27.6-20l-8-13.2"/>
<circle class="st1" cx="527.5" cy="142.7" r="35"/>
<circle class="st1" cx="1209.5" cy="551.6" r="35"/>
</svg>
