<svg width="50" height="50" viewBox="0 0 50 50" fill="none" xmlns="http://www.w3.org/2000/svg">
<path fill-rule="evenodd" clip-rule="evenodd" d="M26.1353 19.3611L34.0762 27.302C34.2715 27.4972 34.5881 27.4972 34.7833 27.302L35.6464 26.4388C35.8417 26.2436 35.8417 25.927 35.6464 25.7317L25.7851 15.8704L25 15.0853L24.2149 15.8704L14.3536 25.7317C14.1583 25.927 14.1583 26.2436 14.3536 26.4388L15.2167 27.302C15.4119 27.4972 15.7285 27.4972 15.9238 27.302L23.9147 19.311L23.9147 35.5C23.9147 35.7761 24.1386 36 24.4147 36H25.6353C25.9115 36 26.1353 35.7761 26.1353 35.5L26.1353 19.3611Z" fill="white"/>
</svg>
