<svg width="23" height="24" viewBox="0 0 23 24" fill="none" xmlns="http://www.w3.org/2000/svg">
<path fill-rule="evenodd" clip-rule="evenodd" d="M9.86467 5.90414L1.92449 13.8767C1.72907 14.0729 1.41138 14.0729 1.21595 13.8767L0.351401 13.0086C0.157098 12.8135 0.157098 12.4981 0.351401 12.303L10.2149 2.39924L11 1.61093L11.7851 2.39924L21.6486 12.303C21.8429 12.4981 21.8429 12.8135 21.6486 13.0086L20.7841 13.8767C20.5886 14.0729 20.2709 14.0729 20.0755 13.8767L12.0853 5.8539L12.0853 22.1109C12.0853 22.3871 11.8614 22.6109 11.5853 22.6109L10.3647 22.6109C10.0885 22.6109 9.86467 22.3871 9.86467 22.1109L9.86467 5.90414Z" fill="#474747"/>
</svg>
