<svg width="16" height="16" viewBox="0 0 16 16" fill="none" xmlns="http://www.w3.org/2000/svg">
<path fill-rule="evenodd" clip-rule="evenodd" d="M13.5815 14.9957C13.7768 15.191 14.0933 15.191 14.2886 14.9957L14.9957 14.2886C15.191 14.0933 15.191 13.7767 14.9957 13.5815L8.9853 7.57107L14.9957 1.56067C15.191 1.36541 15.191 1.04883 14.9957 0.853568L14.2886 0.146461C14.0933 -0.048801 13.7767 -0.0488014 13.5815 0.146461L7.57108 6.15685L1.56068 0.146447C1.36542 -0.0488156 1.04883 -0.0488155 0.853572 0.146447L0.146465 0.853554C-0.0487968 1.04882 -0.0487971 1.3654 0.146465 1.56066L6.15687 7.57107L0.146447 13.5815C-0.0488155 13.7768 -0.0488155 14.0933 0.146447 14.2886L0.853553 14.9957C1.04882 15.191 1.3654 15.191 1.56066 14.9957L7.57108 8.98528L13.5815 14.9957Z" fill="#474747"/>
</svg>
