<?xml version="1.0" encoding="utf-8"?>
<!-- Generator: Adobe Illustrator 24.1.0, SVG Export Plug-In . SVG Version: 6.00 Build 0)  -->
<svg version="1.1" id="Слой_1" xmlns="http://www.w3.org/2000/svg" xmlns:xlink="http://www.w3.org/1999/xlink" x="0px" y="0px"
	 viewBox="0 0 1391 1200" style="enable-background:new 0 0 1391 1200;" xml:space="preserve">
<style type="text/css">
	.st0{fill:none;stroke:#ECFF14;stroke-width:4;stroke-miterlimit:10;}
	.st1{fill:#ECFF14;}
</style>
<image style="overflow:visible;" width="1391" height="1200" xlink:href="03_youinteralia/route maps/andrea.png" >
</image>
<path class="st0" d="M580.8,132.9l101.5,80.8l30.8-36.8l29.3-44.1l100.2,82l16-10.6l16-2.6l81.6-103.3l75.4,51.2l10.6,7.9
	l-15.1,20.3l12.4,9.7l0.9,11.5l-7.1,13.2l-17.7,11.5l-15.1-2.6l-16.9-15l-74.5,97.1l3.5,12.4c0,0-8.9,19.4-14.2,19.4
	c-5.3,0-12.4-0.9-12.4-0.9l-8.9,10.6l-26.6,14.1l-5.3-2.6l-51.4,17.7l23.1,64.4l39-11.5l0.9-6.2l4.8-1.1l3.6,5.7l-3.8,2.7l-4.9-1.4
	l-39.5,11.7l-26.3,87.4L780,522l-25.3-4.2l-35.3,2.4l-37.7,3.9l-55.2,18.9l-17.8,2.4v5.4l-63.4,18l-1.2-5.7h-6l-4.8-25.8v-9
	l-172.3-0.6l2.7,43.8l-4,30.2l-41.5-12.7l-66.5,1.1l-18.6,2.1l4.8,46.6l2.7,48.2l9,14.3l10.1,82.6l1.1,13.8h22.9l7.4,2.6h15.4
	l14.4,3.7l4.8-3.7l103.2,39.2h17.6l3.7-28.6h5.3l3.7,7.9l65.5-35.5l16.5,37.1l22.3,35.5l38.8,78.4L716.2,1044l6.4-5.8l-6.9-11.1
	l1.1-9.5l12.8-8.5l17,6.4l-2.7,4.8l9.6,10.6l6.4-1.1l6.9-10.1l-12.2-11.1l-3.7-10.1l2.7-12.2l9-10.1v-5.8l-8.2-8.2l-9.8,0.3
	l-8.5-5.3L729,964l-19.7-20.1l20.2-21.2L713,906.3l-29.8-31.8l11.7-18.5l77.7,52.4l13.3,10.6l23.9,14.8l16.5,39.2l1.6,32.8l25.5-27
	l31.9-44l57.5-19.6l8,42.9l-0.5,28.1l9.6,1.6l15.4-20.1l47.4-76.8l15.4-22.8l18.1-21.7l10.1-5.8l13.3,11.1l-2.7,28.6l2.1,3.7
	l43.1-41.3l-40.4-45l-21.3-21.2l-38.8-19.1l-42.6-13.8l-12.8-10.1l-29.3-15.4l10.1-25.4l-37.8-11.1l26.1-83.1l46.8,15.9l18.6,4.8
	l8-24.9l20.8-19.1l12.2,6.4l45.8,14.3l38.3,12.7l31.9,7.4l27.7-17.5l33.5-19.6l25.5-18.5l-7.4-12.2"/>
<circle class="st1" cx="579.1" cy="132.1" r="25"/>
<circle class="st1" cx="1237.2" cy="548.3" r="25"/>
</svg>
